<svg width="54" height="64" viewBox="0 0 54 64" fill="none" xmlns="http://www.w3.org/2000/svg">
<path fill-rule="evenodd" clip-rule="evenodd" d="M33 2H8.2C6.55567 2 4.97867 2.62728 3.81595 3.74389C2.6532 4.86046 2 6.37489 2 7.95397V55.5857C2 57.1647 2.6532 58.6791 3.81595 59.7958C4.97867 60.9124 6.55567 61.5397 8.2 61.5397H45.4C47.0442 61.5397 48.6212 60.9124 49.784 59.7958C50.9468 58.6791 51.6 57.1647 51.6 55.5857V19.8619L33 2Z" stroke="#DBDBDB" stroke-width="4" stroke-linecap="round" stroke-linejoin="round"/>
<path d="M33 2V19.8619H51.6" stroke="#DBDBDB" stroke-width="4" stroke-linecap="round" stroke-linejoin="round"/>
<path d="M39.2004 34.7464H14.4004" stroke="#DBDBDB" stroke-width="4" stroke-linecap="round" stroke-linejoin="round"/>
<path d="M39.2004 46.6547H14.4004" stroke="#DBDBDB" stroke-width="4" stroke-linecap="round" stroke-linejoin="round"/>
<path d="M20.6004 22.8391H17.5004H14.4004" stroke="#DBDBDB" stroke-width="4" stroke-linecap="round" stroke-linejoin="round"/>
</svg>
