<svg width="60" height="64" viewBox="0 0 60 64" fill="none" xmlns="http://www.w3.org/2000/svg">
<path fill-rule="evenodd" clip-rule="evenodd" d="M11.3 2L2 13.9079V55.5857C2 57.1647 2.6532 58.6791 3.81595 59.7958C4.97867 60.9124 6.55567 61.5397 8.2 61.5397H51.6C53.2442 61.5397 54.8212 60.9124 55.984 59.7958C57.1468 58.6791 57.8 57.1647 57.8 55.5857V13.9079L48.5 2H11.3Z" stroke="#DBDBDB" stroke-width="4" stroke-linecap="round" stroke-linejoin="round"/>
<path d="M2 13.9075H57.8" stroke="#DBDBDB" stroke-width="4" stroke-linecap="round" stroke-linejoin="round"/>
<path d="M42.3 25.8155C42.3 28.9738 40.9937 32.0026 38.668 34.2356C36.3427 36.469 33.1888 37.7235 29.9 37.7235C26.6112 37.7235 23.4573 36.469 21.1319 34.2356C18.8064 32.0026 17.5 28.9738 17.5 25.8155" stroke="#DBDBDB" stroke-width="4" stroke-linecap="round" stroke-linejoin="round"/>
</svg>
